<svg width="1645" height="600" viewBox="0 0 1645 600" fill="none" xmlns="http://www.w3.org/2000/svg">
<g id="mixed-nobg">
<g id="mixed" clip-path="url(#clip0_9_56)">
<g id="gitoui">
<path d="M633.27 481.15V431.1H754.72C755.186 431.1 755.653 430.867 756.12 430.4C756.586 429.933 756.82 429.467 756.82 429V401H650.07C640.97 401 632.686 398.783 625.22 394.35C617.753 389.683 611.686 383.617 607.02 376.15C602.586 368.683 600.37 360.517 600.37 351.65V247.35C600.37 238.483 602.586 230.317 607.02 222.85C611.686 215.383 617.753 209.433 625.22 205C632.92 200.333 641.203 198 650.07 198H757.17C766.27 198 774.553 200.333 782.02 205C789.486 209.433 795.436 215.383 799.87 222.85C804.303 230.317 806.52 238.483 806.52 247.35V431.45C806.52 440.783 804.303 449.183 799.87 456.65C795.67 464.117 789.72 470.067 782.02 474.5C774.553 478.933 766.27 481.15 757.17 481.15H633.27ZM652.17 351.3H754.72C755.186 351.3 755.653 351.067 756.12 350.6C756.586 350.133 756.82 349.667 756.82 349.2V249.8C756.82 249.333 756.586 248.867 756.12 248.4C755.653 247.933 755.186 247.7 754.72 247.7H652.17C651.703 247.7 651.236 247.933 650.77 248.4C650.303 248.867 650.07 249.333 650.07 249.8V349.2C650.07 349.667 650.303 350.133 650.77 350.6C651.236 351.067 651.703 351.3 652.17 351.3ZM850.136 401V198H899.836V401H850.136ZM850.136 181.55V131.5H899.836V181.55H850.136ZM991.951 401C982.851 401 974.568 398.783 967.101 394.35C959.635 389.683 953.568 383.617 948.901 376.15C944.468 368.683 942.251 360.517 942.251 351.65V136.75H991.951V198H1069.3V247.7H991.951V349.2C991.951 349.667 992.185 350.133 992.651 350.6C993.118 351.067 993.585 351.3 994.051 351.3H1069.3V401H991.951Z" fill="#F05133"/>
<path d="M1153.76 401C1144.89 401 1136.73 398.783 1129.26 394.35C1121.79 389.683 1115.73 383.617 1111.06 376.15C1106.63 368.683 1104.41 360.517 1104.41 351.65V247.35C1104.41 238.483 1106.63 230.317 1111.06 222.85C1115.73 215.383 1121.79 209.433 1129.26 205C1136.73 200.333 1144.89 198 1153.76 198H1260.86C1269.96 198 1278.24 200.333 1285.71 205C1293.18 209.433 1299.13 215.383 1303.56 222.85C1307.99 230.317 1310.21 238.483 1310.21 247.35V351.65C1310.21 360.517 1307.99 368.683 1303.56 376.15C1299.13 383.617 1293.18 389.683 1285.71 394.35C1278.24 398.783 1269.96 401 1260.86 401H1153.76ZM1156.21 351.3H1258.41C1258.88 351.3 1259.34 351.067 1259.81 350.6C1260.28 350.133 1260.51 349.667 1260.51 349.2V249.8C1260.51 249.333 1260.28 248.867 1259.81 248.4C1259.34 247.933 1258.88 247.7 1258.41 247.7H1156.21C1155.74 247.7 1155.28 247.933 1154.81 248.4C1154.34 248.867 1154.11 249.333 1154.11 249.8V349.2C1154.11 349.667 1154.34 350.133 1154.81 350.6C1155.28 351.067 1155.74 351.3 1156.21 351.3ZM1394.57 401C1385.7 401 1377.42 398.783 1369.72 394.35C1362.25 389.683 1356.3 383.617 1351.87 376.15C1347.43 368.683 1345.22 360.517 1345.22 351.65V198H1394.92V349.2C1394.92 349.667 1395.15 350.133 1395.62 350.6C1396.08 351.067 1396.55 351.3 1397.02 351.3H1499.22C1499.68 351.3 1500.15 351.067 1500.62 350.6C1501.08 350.133 1501.32 349.667 1501.32 349.2V198H1551.02V351.65C1551.02 360.517 1548.8 368.683 1544.37 376.15C1539.93 383.617 1533.98 389.683 1526.52 394.35C1519.05 398.783 1510.77 401 1501.67 401H1394.57ZM1595.23 401V198H1644.93V401H1595.23ZM1595.23 181.55V131.5H1644.93V181.55H1595.23Z" fill="#F1ECEC"/>
</g>
</g>
<rect id="Rectangle 1" width="119" height="600" fill="#F05133"/>
<rect id="Rectangle 2" x="360" y="241" width="121" height="358" fill="#F05133"/>
<rect id="Rectangle 3" y="480" width="480" height="119" fill="#F05133"/>
<rect id="Rectangle 6" x="119" y="360" width="241" height="120" fill="#8B2A12"/>
<rect id="Rectangle 5" x="241" y="240" width="239" height="120" fill="#F05133"/>
<rect id="Rectangle 4" x="1" width="479" height="119" fill="#F05133"/>
</g>
<defs>
<clipPath id="clip0_9_56">
<rect width="1644" height="600" fill="white" transform="translate(1)"/>
</clipPath>
</defs>
</svg>
